<mxfile host="app.diagrams.net" agent="Mozilla/5.0 (X11; Linux x86_64) AppleWebKit/537.36 (KHTML, like Gecko) Chrome/135.0.0.0 Safari/537.36" version="26.2.14">
  <diagram name="Page-1" id="JIqsneTzbDNuY5DNTRGc">
    <mxGraphModel dx="1678" dy="886" grid="1" gridSize="10" guides="1" tooltips="1" connect="1" arrows="1" fold="1" page="1" pageScale="1" pageWidth="850" pageHeight="1100" math="0" shadow="0">
      <root>
        <mxCell id="0" />
        <mxCell id="1" parent="0" />
        <mxCell id="S-3-bInjU8JYBJXF83Um-50" value="&lt;div&gt;&amp;nbsp;Back-end processing&lt;/div&gt;&lt;div&gt;&lt;br&gt;&lt;/div&gt;&lt;div&gt;&lt;br&gt;&lt;/div&gt;&lt;div&gt;&lt;br&gt;&lt;/div&gt;&lt;div&gt;&lt;br&gt;&lt;/div&gt;&lt;div&gt;&lt;br&gt;&lt;/div&gt;&lt;div&gt;&lt;br&gt;&lt;/div&gt;&lt;div&gt;&lt;br&gt;&lt;/div&gt;&lt;div&gt;&lt;br&gt;&lt;/div&gt;&lt;div&gt;&lt;br&gt;&lt;/div&gt;" style="rounded=0;whiteSpace=wrap;html=1;align=left;fontStyle=1" vertex="1" parent="1">
          <mxGeometry x="200" y="391" width="619" height="149" as="geometry" />
        </mxCell>
        <mxCell id="S-3-bInjU8JYBJXF83Um-42" value="&lt;div&gt;&amp;nbsp;User Interaction&lt;/div&gt;&lt;div&gt;&lt;br&gt;&lt;/div&gt;&lt;div&gt;&lt;br&gt;&lt;/div&gt;&lt;div&gt;&lt;br&gt;&lt;/div&gt;&lt;div&gt;&lt;br&gt;&lt;/div&gt;&lt;div&gt;&lt;br&gt;&lt;/div&gt;&lt;div&gt;&lt;br&gt;&lt;/div&gt;&lt;div&gt;&lt;br&gt;&lt;/div&gt;&lt;div&gt;&lt;br&gt;&lt;/div&gt;&lt;div&gt;&lt;br&gt;&lt;/div&gt;" style="rounded=0;whiteSpace=wrap;html=1;align=left;fontStyle=1" vertex="1" parent="1">
          <mxGeometry x="201" y="201" width="619" height="149" as="geometry" />
        </mxCell>
        <mxCell id="S-3-bInjU8JYBJXF83Um-18" style="edgeStyle=orthogonalEdgeStyle;rounded=0;orthogonalLoop=1;jettySize=auto;html=1;exitX=1;exitY=0.5;exitDx=0;exitDy=0;fontStyle=1" edge="1" parent="1" source="S-3-bInjU8JYBJXF83Um-3" target="S-3-bInjU8JYBJXF83Um-4">
          <mxGeometry relative="1" as="geometry" />
        </mxCell>
        <mxCell id="S-3-bInjU8JYBJXF83Um-3" value="System Initialization" style="rounded=1;whiteSpace=wrap;html=1;fontStyle=1" vertex="1" parent="1">
          <mxGeometry x="40" y="40" width="120" height="40" as="geometry" />
        </mxCell>
        <mxCell id="S-3-bInjU8JYBJXF83Um-20" style="edgeStyle=orthogonalEdgeStyle;rounded=0;orthogonalLoop=1;jettySize=auto;html=1;exitX=1;exitY=0.5;exitDx=0;exitDy=0;entryX=0;entryY=0.5;entryDx=0;entryDy=0;fontStyle=1" edge="1" parent="1" source="S-3-bInjU8JYBJXF83Um-4" target="S-3-bInjU8JYBJXF83Um-5">
          <mxGeometry relative="1" as="geometry" />
        </mxCell>
        <mxCell id="S-3-bInjU8JYBJXF83Um-4" value="Image Dataset Preparation" style="rounded=1;whiteSpace=wrap;html=1;fontStyle=1" vertex="1" parent="1">
          <mxGeometry x="200" y="40" width="120" height="40" as="geometry" />
        </mxCell>
        <mxCell id="S-3-bInjU8JYBJXF83Um-17" style="edgeStyle=orthogonalEdgeStyle;rounded=0;orthogonalLoop=1;jettySize=auto;html=1;exitX=1;exitY=0.5;exitDx=0;exitDy=0;entryX=0;entryY=0.5;entryDx=0;entryDy=0;fontStyle=1" edge="1" parent="1" source="S-3-bInjU8JYBJXF83Um-5" target="S-3-bInjU8JYBJXF83Um-6">
          <mxGeometry relative="1" as="geometry" />
        </mxCell>
        <mxCell id="S-3-bInjU8JYBJXF83Um-5" value="Extract Geo-tag and Timestamp Metadata" style="rounded=1;whiteSpace=wrap;html=1;fontStyle=1" vertex="1" parent="1">
          <mxGeometry x="360" y="40" width="120" height="40" as="geometry" />
        </mxCell>
        <mxCell id="S-3-bInjU8JYBJXF83Um-73" value="" style="edgeStyle=orthogonalEdgeStyle;rounded=0;orthogonalLoop=1;jettySize=auto;html=1;fontStyle=1" edge="1" parent="1" source="S-3-bInjU8JYBJXF83Um-6" target="S-3-bInjU8JYBJXF83Um-7">
          <mxGeometry relative="1" as="geometry">
            <Array as="points">
              <mxPoint x="570" y="90" />
              <mxPoint x="570" y="90" />
            </Array>
          </mxGeometry>
        </mxCell>
        <mxCell id="S-3-bInjU8JYBJXF83Um-6" value="Create Tourist Spot Objects" style="rounded=1;whiteSpace=wrap;html=1;fontStyle=1" vertex="1" parent="1">
          <mxGeometry x="511" y="40" width="120" height="40" as="geometry" />
        </mxCell>
        <mxCell id="S-3-bInjU8JYBJXF83Um-74" value="" style="edgeStyle=orthogonalEdgeStyle;rounded=0;orthogonalLoop=1;jettySize=auto;html=1;fontStyle=1" edge="1" parent="1" source="S-3-bInjU8JYBJXF83Um-7" target="S-3-bInjU8JYBJXF83Um-8">
          <mxGeometry relative="1" as="geometry" />
        </mxCell>
        <mxCell id="S-3-bInjU8JYBJXF83Um-7" value="Compute Density Clusters" style="rounded=1;whiteSpace=wrap;html=1;fontStyle=1" vertex="1" parent="1">
          <mxGeometry x="510" y="120" width="120" height="40" as="geometry" />
        </mxCell>
        <mxCell id="S-3-bInjU8JYBJXF83Um-58" style="edgeStyle=orthogonalEdgeStyle;rounded=0;orthogonalLoop=1;jettySize=auto;html=1;entryX=1;entryY=0.5;entryDx=0;entryDy=0;fontStyle=1" edge="1" parent="1" source="S-3-bInjU8JYBJXF83Um-8" target="S-3-bInjU8JYBJXF83Um-9">
          <mxGeometry relative="1" as="geometry" />
        </mxCell>
        <mxCell id="S-3-bInjU8JYBJXF83Um-8" value="Create Time Sectors" style="rounded=1;whiteSpace=wrap;html=1;fontStyle=1" vertex="1" parent="1">
          <mxGeometry x="320" y="120" width="120" height="40" as="geometry" />
        </mxCell>
        <mxCell id="S-3-bInjU8JYBJXF83Um-76" style="edgeStyle=orthogonalEdgeStyle;rounded=0;orthogonalLoop=1;jettySize=auto;html=1;entryX=0.5;entryY=0;entryDx=0;entryDy=0;fontStyle=1" edge="1" parent="1" source="S-3-bInjU8JYBJXF83Um-9" target="S-3-bInjU8JYBJXF83Um-22">
          <mxGeometry relative="1" as="geometry">
            <Array as="points">
              <mxPoint x="100" y="140" />
            </Array>
          </mxGeometry>
        </mxCell>
        <mxCell id="S-3-bInjU8JYBJXF83Um-9" value="Calculate Density for each region and Time Sector" style="rounded=1;whiteSpace=wrap;html=1;fontStyle=1" vertex="1" parent="1">
          <mxGeometry x="120" y="120" width="150" height="40" as="geometry" />
        </mxCell>
        <mxCell id="S-3-bInjU8JYBJXF83Um-25" style="edgeStyle=orthogonalEdgeStyle;rounded=0;orthogonalLoop=1;jettySize=auto;html=1;fontStyle=1" edge="1" parent="1" source="S-3-bInjU8JYBJXF83Um-22" target="S-3-bInjU8JYBJXF83Um-24">
          <mxGeometry relative="1" as="geometry" />
        </mxCell>
        <mxCell id="S-3-bInjU8JYBJXF83Um-22" value="Normalize Density Values (Min-Max)" style="rounded=1;whiteSpace=wrap;html=1;fontStyle=1" vertex="1" parent="1">
          <mxGeometry x="40" y="191" width="120" height="40" as="geometry" />
        </mxCell>
        <mxCell id="S-3-bInjU8JYBJXF83Um-71" style="edgeStyle=orthogonalEdgeStyle;rounded=0;orthogonalLoop=1;jettySize=auto;html=1;fontStyle=1" edge="1" parent="1" source="S-3-bInjU8JYBJXF83Um-24">
          <mxGeometry relative="1" as="geometry">
            <mxPoint x="100" y="350" as="targetPoint" />
          </mxGeometry>
        </mxCell>
        <mxCell id="S-3-bInjU8JYBJXF83Um-24" value="Store Normalized Densities" style="rounded=1;whiteSpace=wrap;html=1;fontStyle=1" vertex="1" parent="1">
          <mxGeometry x="40" y="271" width="120" height="44.5" as="geometry" />
        </mxCell>
        <mxCell id="S-3-bInjU8JYBJXF83Um-70" style="edgeStyle=orthogonalEdgeStyle;rounded=0;orthogonalLoop=1;jettySize=auto;html=1;entryX=0;entryY=0.25;entryDx=0;entryDy=0;fontStyle=1" edge="1" parent="1" source="S-3-bInjU8JYBJXF83Um-26" target="S-3-bInjU8JYBJXF83Um-42">
          <mxGeometry relative="1" as="geometry" />
        </mxCell>
        <mxCell id="S-3-bInjU8JYBJXF83Um-26" value="System Ready to Serve Users" style="rounded=1;whiteSpace=wrap;html=1;fontStyle=1" vertex="1" parent="1">
          <mxGeometry x="40" y="351" width="120" height="40" as="geometry" />
        </mxCell>
        <mxCell id="S-3-bInjU8JYBJXF83Um-35" style="edgeStyle=orthogonalEdgeStyle;rounded=0;orthogonalLoop=1;jettySize=auto;html=1;exitX=1;exitY=0.5;exitDx=0;exitDy=0;entryX=0;entryY=0.5;entryDx=0;entryDy=0;fontStyle=1" edge="1" parent="1" source="S-3-bInjU8JYBJXF83Um-28" target="S-3-bInjU8JYBJXF83Um-29">
          <mxGeometry relative="1" as="geometry" />
        </mxCell>
        <mxCell id="S-3-bInjU8JYBJXF83Um-28" value="User Opens Front-end" style="rounded=1;whiteSpace=wrap;html=1;fontStyle=1" vertex="1" parent="1">
          <mxGeometry x="210" y="221" width="120" height="40" as="geometry" />
        </mxCell>
        <mxCell id="S-3-bInjU8JYBJXF83Um-36" style="edgeStyle=orthogonalEdgeStyle;rounded=0;orthogonalLoop=1;jettySize=auto;html=1;exitX=1;exitY=0.5;exitDx=0;exitDy=0;fontStyle=1" edge="1" parent="1" source="S-3-bInjU8JYBJXF83Um-29" target="S-3-bInjU8JYBJXF83Um-30">
          <mxGeometry relative="1" as="geometry" />
        </mxCell>
        <mxCell id="S-3-bInjU8JYBJXF83Um-29" value="Enter Min-Density Preference" style="rounded=1;whiteSpace=wrap;html=1;fontStyle=1" vertex="1" parent="1">
          <mxGeometry x="370" y="221" width="120" height="40" as="geometry" />
        </mxCell>
        <mxCell id="S-3-bInjU8JYBJXF83Um-39" value="" style="edgeStyle=orthogonalEdgeStyle;rounded=0;orthogonalLoop=1;jettySize=auto;html=1;fontStyle=1" edge="1" parent="1" source="S-3-bInjU8JYBJXF83Um-30" target="S-3-bInjU8JYBJXF83Um-31">
          <mxGeometry relative="1" as="geometry" />
        </mxCell>
        <mxCell id="S-3-bInjU8JYBJXF83Um-30" value="Enter Max-Density Preference" style="rounded=1;whiteSpace=wrap;html=1;fontStyle=1" vertex="1" parent="1">
          <mxGeometry x="530" y="221" width="120" height="40" as="geometry" />
        </mxCell>
        <mxCell id="S-3-bInjU8JYBJXF83Um-38" value="" style="edgeStyle=orthogonalEdgeStyle;rounded=0;orthogonalLoop=1;jettySize=auto;html=1;fontStyle=1" edge="1" parent="1" source="S-3-bInjU8JYBJXF83Um-31" target="S-3-bInjU8JYBJXF83Um-32">
          <mxGeometry relative="1" as="geometry" />
        </mxCell>
        <mxCell id="S-3-bInjU8JYBJXF83Um-31" value="Enter Start Time" style="rounded=1;whiteSpace=wrap;html=1;fontStyle=1" vertex="1" parent="1">
          <mxGeometry x="690" y="221" width="120" height="40" as="geometry" />
        </mxCell>
        <mxCell id="S-3-bInjU8JYBJXF83Um-40" value="" style="edgeStyle=orthogonalEdgeStyle;rounded=0;orthogonalLoop=1;jettySize=auto;html=1;fontStyle=1" edge="1" parent="1" source="S-3-bInjU8JYBJXF83Um-32" target="S-3-bInjU8JYBJXF83Um-33">
          <mxGeometry relative="1" as="geometry" />
        </mxCell>
        <mxCell id="S-3-bInjU8JYBJXF83Um-32" value="Enter End Time" style="rounded=1;whiteSpace=wrap;html=1;fontStyle=1" vertex="1" parent="1">
          <mxGeometry x="690" y="301" width="120" height="40" as="geometry" />
        </mxCell>
        <mxCell id="S-3-bInjU8JYBJXF83Um-41" value="" style="edgeStyle=orthogonalEdgeStyle;rounded=0;orthogonalLoop=1;jettySize=auto;html=1;fontStyle=1" edge="1" parent="1" source="S-3-bInjU8JYBJXF83Um-33" target="S-3-bInjU8JYBJXF83Um-34">
          <mxGeometry relative="1" as="geometry" />
        </mxCell>
        <mxCell id="S-3-bInjU8JYBJXF83Um-33" value="Enter Number of spots to recommend" style="rounded=1;whiteSpace=wrap;html=1;fontStyle=1" vertex="1" parent="1">
          <mxGeometry x="530" y="301" width="120" height="40" as="geometry" />
        </mxCell>
        <mxCell id="S-3-bInjU8JYBJXF83Um-77" style="edgeStyle=orthogonalEdgeStyle;rounded=0;orthogonalLoop=1;jettySize=auto;html=1;fontStyle=1" edge="1" parent="1" source="S-3-bInjU8JYBJXF83Um-34">
          <mxGeometry relative="1" as="geometry">
            <mxPoint x="270" y="390" as="targetPoint" />
          </mxGeometry>
        </mxCell>
        <mxCell id="S-3-bInjU8JYBJXF83Um-34" value="Submit Preferences" style="rounded=1;whiteSpace=wrap;html=1;fontStyle=1" vertex="1" parent="1">
          <mxGeometry x="370" y="301" width="120" height="40" as="geometry" />
        </mxCell>
        <mxCell id="S-3-bInjU8JYBJXF83Um-51" value="" style="edgeStyle=orthogonalEdgeStyle;rounded=0;orthogonalLoop=1;jettySize=auto;html=1;fontStyle=1" edge="1" parent="1" source="S-3-bInjU8JYBJXF83Um-45" target="S-3-bInjU8JYBJXF83Um-46">
          <mxGeometry relative="1" as="geometry" />
        </mxCell>
        <mxCell id="S-3-bInjU8JYBJXF83Um-45" value="Receive API Call with User Preferences." style="rounded=1;whiteSpace=wrap;html=1;fontStyle=1" vertex="1" parent="1">
          <mxGeometry x="210" y="421" width="120" height="40" as="geometry" />
        </mxCell>
        <mxCell id="S-3-bInjU8JYBJXF83Um-52" value="" style="edgeStyle=orthogonalEdgeStyle;rounded=0;orthogonalLoop=1;jettySize=auto;html=1;fontStyle=1" edge="1" parent="1" source="S-3-bInjU8JYBJXF83Um-46" target="S-3-bInjU8JYBJXF83Um-47">
          <mxGeometry relative="1" as="geometry" />
        </mxCell>
        <mxCell id="S-3-bInjU8JYBJXF83Um-46" value="Filter Tourist Spots by Time and Density" style="rounded=1;whiteSpace=wrap;html=1;fontStyle=1" vertex="1" parent="1">
          <mxGeometry x="370" y="421" width="120" height="40" as="geometry" />
        </mxCell>
        <mxCell id="S-3-bInjU8JYBJXF83Um-53" value="" style="edgeStyle=orthogonalEdgeStyle;rounded=0;orthogonalLoop=1;jettySize=auto;html=1;fontStyle=1" edge="1" parent="1" source="S-3-bInjU8JYBJXF83Um-47" target="S-3-bInjU8JYBJXF83Um-48">
          <mxGeometry relative="1" as="geometry" />
        </mxCell>
        <mxCell id="S-3-bInjU8JYBJXF83Um-47" value="Sort Filtered List by Time and Density" style="rounded=1;whiteSpace=wrap;html=1;fontStyle=1" vertex="1" parent="1">
          <mxGeometry x="530" y="421" width="120" height="40" as="geometry" />
        </mxCell>
        <mxCell id="S-3-bInjU8JYBJXF83Um-54" value="" style="edgeStyle=orthogonalEdgeStyle;rounded=0;orthogonalLoop=1;jettySize=auto;html=1;fontStyle=1" edge="1" parent="1" source="S-3-bInjU8JYBJXF83Um-48" target="S-3-bInjU8JYBJXF83Um-49">
          <mxGeometry relative="1" as="geometry" />
        </mxCell>
        <mxCell id="S-3-bInjU8JYBJXF83Um-48" value="Sort filtered list by Preference Score" style="rounded=1;whiteSpace=wrap;html=1;fontStyle=1" vertex="1" parent="1">
          <mxGeometry x="690" y="421" width="120" height="40" as="geometry" />
        </mxCell>
        <mxCell id="S-3-bInjU8JYBJXF83Um-81" value="" style="edgeStyle=orthogonalEdgeStyle;rounded=0;orthogonalLoop=1;jettySize=auto;html=1;fontStyle=1" edge="1" parent="1" source="S-3-bInjU8JYBJXF83Um-49" target="S-3-bInjU8JYBJXF83Um-67">
          <mxGeometry relative="1" as="geometry" />
        </mxCell>
        <mxCell id="S-3-bInjU8JYBJXF83Um-49" value="return top N results." style="rounded=1;whiteSpace=wrap;html=1;fontStyle=1" vertex="1" parent="1">
          <mxGeometry x="690" y="491" width="120" height="40" as="geometry" />
        </mxCell>
        <mxCell id="S-3-bInjU8JYBJXF83Um-84" value="" style="edgeStyle=orthogonalEdgeStyle;rounded=0;orthogonalLoop=1;jettySize=auto;html=1;fontStyle=1" edge="1" parent="1" source="S-3-bInjU8JYBJXF83Um-66" target="S-3-bInjU8JYBJXF83Um-83">
          <mxGeometry relative="1" as="geometry" />
        </mxCell>
        <mxCell id="S-3-bInjU8JYBJXF83Um-66" value="Show Normalized Densities" style="rounded=1;whiteSpace=wrap;html=1;fontStyle=1" vertex="1" parent="1">
          <mxGeometry x="690" y="640" width="120" height="40" as="geometry" />
        </mxCell>
        <mxCell id="S-3-bInjU8JYBJXF83Um-79" value="" style="edgeStyle=orthogonalEdgeStyle;rounded=0;orthogonalLoop=1;jettySize=auto;html=1;fontStyle=1" edge="1" parent="1" source="S-3-bInjU8JYBJXF83Um-67" target="S-3-bInjU8JYBJXF83Um-66">
          <mxGeometry relative="1" as="geometry" />
        </mxCell>
        <mxCell id="S-3-bInjU8JYBJXF83Um-82" value="" style="edgeStyle=orthogonalEdgeStyle;rounded=0;orthogonalLoop=1;jettySize=auto;html=1;fontStyle=1" edge="1" parent="1" source="S-3-bInjU8JYBJXF83Um-67" target="S-3-bInjU8JYBJXF83Um-49">
          <mxGeometry relative="1" as="geometry" />
        </mxCell>
        <mxCell id="S-3-bInjU8JYBJXF83Um-97" value="" style="edgeStyle=orthogonalEdgeStyle;rounded=0;orthogonalLoop=1;jettySize=auto;html=1;" edge="1" parent="1" source="S-3-bInjU8JYBJXF83Um-67" target="S-3-bInjU8JYBJXF83Um-96">
          <mxGeometry relative="1" as="geometry" />
        </mxCell>
        <mxCell id="S-3-bInjU8JYBJXF83Um-67" value="Display Recommended Tourist Locations" style="rounded=1;whiteSpace=wrap;html=1;fontStyle=1" vertex="1" parent="1">
          <mxGeometry x="690" y="560" width="120" height="40" as="geometry" />
        </mxCell>
        <mxCell id="S-3-bInjU8JYBJXF83Um-88" value="" style="edgeStyle=orthogonalEdgeStyle;rounded=0;orthogonalLoop=1;jettySize=auto;html=1;fontStyle=1" edge="1" parent="1" source="S-3-bInjU8JYBJXF83Um-68" target="S-3-bInjU8JYBJXF83Um-87">
          <mxGeometry relative="1" as="geometry" />
        </mxCell>
        <mxCell id="S-3-bInjU8JYBJXF83Um-68" value="Increment Density Value for Selected Location" style="rounded=1;whiteSpace=wrap;html=1;fontStyle=1" vertex="1" parent="1">
          <mxGeometry x="201" y="640" width="150" height="40" as="geometry" />
        </mxCell>
        <mxCell id="S-3-bInjU8JYBJXF83Um-86" value="" style="edgeStyle=orthogonalEdgeStyle;rounded=0;orthogonalLoop=1;jettySize=auto;html=1;fontStyle=1" edge="1" parent="1" source="S-3-bInjU8JYBJXF83Um-69" target="S-3-bInjU8JYBJXF83Um-68">
          <mxGeometry relative="1" as="geometry" />
        </mxCell>
        <mxCell id="S-3-bInjU8JYBJXF83Um-69" value="User Proceeds to suggested location" style="rounded=1;whiteSpace=wrap;html=1;fontStyle=1" vertex="1" parent="1">
          <mxGeometry x="380" y="640" width="120" height="40" as="geometry" />
        </mxCell>
        <mxCell id="S-3-bInjU8JYBJXF83Um-85" value="" style="edgeStyle=orthogonalEdgeStyle;rounded=0;orthogonalLoop=1;jettySize=auto;html=1;fontStyle=1" edge="1" parent="1" source="S-3-bInjU8JYBJXF83Um-83" target="S-3-bInjU8JYBJXF83Um-69">
          <mxGeometry relative="1" as="geometry" />
        </mxCell>
        <mxCell id="S-3-bInjU8JYBJXF83Um-83" value="User Selects Location or Default Route" style="rounded=1;whiteSpace=wrap;html=1;fontStyle=1" vertex="1" parent="1">
          <mxGeometry x="540" y="640" width="120" height="40" as="geometry" />
        </mxCell>
        <mxCell id="S-3-bInjU8JYBJXF83Um-93" style="edgeStyle=orthogonalEdgeStyle;rounded=0;orthogonalLoop=1;jettySize=auto;html=1;exitX=0.018;exitY=0.632;exitDx=0;exitDy=0;entryX=0;entryY=0.5;entryDx=0;entryDy=0;exitPerimeter=0;fontStyle=1" edge="1" parent="1" source="S-3-bInjU8JYBJXF83Um-87" target="S-3-bInjU8JYBJXF83Um-22">
          <mxGeometry relative="1" as="geometry">
            <mxPoint x="195" y="585" as="sourcePoint" />
            <mxPoint x="30" y="210" as="targetPoint" />
            <Array as="points">
              <mxPoint x="20" y="585" />
              <mxPoint x="20" y="210" />
              <mxPoint x="40" y="210" />
            </Array>
          </mxGeometry>
        </mxCell>
        <mxCell id="S-3-bInjU8JYBJXF83Um-94" value="After every time &#39;t&#39;" style="edgeLabel;html=1;align=center;verticalAlign=middle;resizable=0;points=[];fontStyle=1" vertex="1" connectable="0" parent="S-3-bInjU8JYBJXF83Um-93">
          <mxGeometry x="-0.586" y="3" relative="1" as="geometry">
            <mxPoint x="14" y="-5" as="offset" />
          </mxGeometry>
        </mxCell>
        <mxCell id="S-3-bInjU8JYBJXF83Um-95" style="edgeStyle=orthogonalEdgeStyle;rounded=0;orthogonalLoop=1;jettySize=auto;html=1;exitX=0;exitY=0.25;exitDx=0;exitDy=0;fontStyle=1" edge="1" parent="1" source="S-3-bInjU8JYBJXF83Um-87" target="S-3-bInjU8JYBJXF83Um-26">
          <mxGeometry relative="1" as="geometry" />
        </mxCell>
        <mxCell id="S-3-bInjU8JYBJXF83Um-87" value="Update Density Clusters" style="rounded=1;whiteSpace=wrap;html=1;fontStyle=1" vertex="1" parent="1">
          <mxGeometry x="216" y="560" width="120" height="40" as="geometry" />
        </mxCell>
        <mxCell id="S-3-bInjU8JYBJXF83Um-96" value="" style="shape=waypoint;sketch=0;size=6;pointerEvents=1;points=[];fillColor=default;resizable=0;rotatable=0;perimeter=centerPerimeter;snapToPoint=1;rounded=1;fontStyle=1;" vertex="1" parent="1">
          <mxGeometry x="860" y="570" width="20" height="20" as="geometry" />
        </mxCell>
      </root>
    </mxGraphModel>
  </diagram>
</mxfile>
